<?xml version="1.0" encoding="utf-8"?>
<!-- Generator: Adobe Illustrator 26.5.0, SVG Export Plug-In . SVG Version: 6.00 Build 0)  -->
<svg version="1.1" id="Capa_1" xmlns="http://www.w3.org/2000/svg" xmlns:xlink="http://www.w3.org/1999/xlink" x="0px" y="0px"
	 viewBox="0 0 1080 1080" style="enable-background:new 0 0 1080 1080;" xml:space="preserve">
<style type="text/css">
	.st0{fill:#EABE3F;}
</style>
<g>
	<path class="st0" d="M623.5,416.2c0.7-36.3-7.4-68.9-29.4-97c-22-28.2-50.7-44.8-86.6-48.9c-57.5-6.5-108.9,9.1-153.8,44.5
		c-31.7,25-54.7,56.9-65.1,96.7c-3.9,15-5.5,30.2-1.5,45.4c4.5,16.8,15,29.1,30.2,37.1c5.9,3.1,8.2,7,7.7,13.4
		c-0.4,4.5-0.1,9.1-0.1,13.7c0,9.9-4.1,13.4-14,12.1c-9.6-1.3-16.8-6.7-22.9-13.8c-24.9-29.3-31.2-63.1-23.2-99.8
		c13.9-63.7,51.1-110.1,107.7-141.6c43.3-24.1,90.1-33.4,139-31.4c38.8,1.6,76.1,10,108.3,34.1c33.3,24.8,54.7,56.9,60,98.3
		c7.4,58.6-9.5,110.4-46,156.4c-37,46.5-86.2,69.5-144.3,76.1c-25.3,2.8-50.4,0.2-75.6-1.7c-28.5-2.1-56.9-2.1-85.4-1.9
		c-2.1,0-15.6,1.9-15.3-3.7c0.3-4.8,1.8-11.1,8.4-12.4c4.7-0.9,9.6-1.2,14.4-1.7c7.2-0.8,14.5-1.4,20.6-5.9
		c1.3-1.3,8.2-2.1,12.5-2.1c25.9,0,41.5-25.8,26.9-47.3c-8.8-13-8.2-24.1-4-37.4c4-12.5,7.2-25.3,10.2-38.1
		c1.8-7.8,5.4-13.6,12.5-17.7c11.7-6.8,23.6-12.8,36.6-16.5c5.8-1.6,8.4,0.2,6.9,6.4c-11.3,48.7-22.9,97.4-45,142.7
		c-7,14.2-7.1,14.3,8.9,16.6c46.1,6.4,89.6-0.3,128.8-26.5c28.4-19,47.2-45.8,59.8-77.2C620,463.9,624.4,439.9,623.5,416.2z"/>
	<path class="st0" d="M730.5,469.5c-14.9,16.8-26.9,35-39.7,52.5c-25,34-48.2,69.2-69.7,105.5c-19.2,32.3-37.5,65.2-56.2,97.9
		c-3.9,6.8-7.6,13.6-11.5,20.4c-0.9,1.5-1.6,4-3.9,3.4c-2.3-0.5-1.8-3-1.9-4.8c-1.6-20.6-3.3-41.2-4.8-61.8
		c-1.4-19.8-2.5-39.7-4.1-59.5c-0.5-5.5,1-8.4,6.2-10.4c9.3-3.5,18.4-7.6,27.5-11.4c7.2-3,8.5-2.2,9,5.4c0.6,8.3,1.1,16.6,1.8,24.9
		c0.2,2.3-0.8,5.6,2,6.4c2.9,0.8,3.7-2.6,4.9-4.5c11.4-18.6,22.3-37.4,34-55.8c35.4-55.6,72.8-109.7,117.5-158.4
		c18.2-19.8,37.1-38.9,60.2-53.2c2.1-1.3,4.4-4.4,7-2.2c2.2,1.8,0.1,4.6-0.7,6.7c-20.3,58.2-35.6,117.8-50.8,177.5
		c-13.4,52.9-27.7,105.5-39.2,158.9c-3.1,14.3-3.3,14.5,11.4,17c15.7,2.8,31.6,2.1,47.4,0.6c3.5-0.3,8.4-3.5,10.5,1.8
		c2.2,5.6-3.5,15.9-8.8,16.8c-11.7,2-23.5,2.4-35.3,1.2c-15.5-1.6-30.9-4.1-46.5-4.2c-11.4-0.1-22.7,0.4-33.5,3.9
		c-7.8,2.5-7.7-1-5.7-6.5c6.2-17.5,11.9-35.1,17-53c11.2-39.6,20.8-79.6,31-119.4c7.7-29.9,14.3-60.1,24.5-89.4
		C730.7,474,731.7,472.3,730.5,469.5z"/>
	<path class="st0" d="M525,450.1c-4,23.7-7.1,45.2-11.3,66.5c-3.3,16.9-7.8,33.5-12,50.2c-1.7,6.6-18,13.1-23.7,9.8
		c-3.3-1.9-1.7-4.8-1.1-7.2c2.5-10.2,5.5-20.2,7.9-30.4c9.7-41.1,16.9-82.7,20.5-124.8c0.5-6-0.3-10.1-7.8-9.6
		c-43.7,2.6-83.6,14.4-114.6,47.6c-12,12.9-19,28.2-18.4,45.9c0.4,11.9,6.9,21.9,13.8,31.3c3.4,4.5,6.8,9,8.5,14.5
		c3,9.9,0.8,17.9-6.1,22.2c-8,4.9-18.4,3.8-25.2-3c-10.5-10.5-16.2-23.5-17.5-38.1c-3.2-34.8,8.8-64.3,32.4-89.6
		c27.9-29.8,64.2-41.9,103-48.9c22.6-4.1,45.6-2,68.3-4.7c5.9-0.7,11.8-1.2,17.6-2.4c5.7-1.2,8.1,0.5,7.9,6.4
		c-0.7,23.7,0.6,47.2,3,70.8c1.7,17.1,1.1,34.5,4.1,51.3c2.3,13.1-2.2,21.9-11,29.8c-6.4,5.7-13.1,11.2-20,16.2
		c-7,5.1-9.5,3.5-10.1-5.4c-2.2-31.3-4.4-62.7-6.7-94C526.3,453.9,525.9,453.2,525,450.1z"/>
	<path class="st0" d="M341.2,759.7c-7.6,0.2-15-0.3-22-3.8c-10.7-5.5-15.9-15.3-13.3-25.7c2.3-9.5,13.2-16.6,24.6-15.6
		c6.1,0.5,12.5,1.1,18.3,3c28.6,9.1,49.7-3,67.8-23.5c15.8-17.9,27.9-38.1,37.5-59.9c3.4-7.6,17.3-12,24.8-8c3.5,1.9,2,4.7,1.1,7
		c-10,24.4-21.7,48-38.2,68.8c-12.9,16.3-26.9,31.5-45.2,41.8C379.2,753.4,361,759.3,341.2,759.7z"/>
	<path class="st0" d="M422.1,381.7c3.5-15.6,7-30,9.9-44.4c2.5-12.6,0.6-15-12-16.7c-3.4-0.5-5.8-1.4-5.3-5.4
		c0.6-4.7,1.4-8.7,7.6-9.5c13.3-1.7,26.5-3.9,39.7-6.2c8.7-1.5,17.4-3.4,26-5.3c5.5-1.2,7.4,1.2,5.6,6
		c-8.6,22.6-14.8,45.9-20.8,69.3c-0.9,3.5-3.3,5.2-6.9,5.8c-12.7,2.3-25.2,5.4-37.5,9.4C424.5,386,421.3,386.3,422.1,381.7z"/>
</g>
</svg>
