<?xml version="1.0" encoding="utf-8"?>
<!-- Generator: Adobe Illustrator 26.5.0, SVG Export Plug-In . SVG Version: 6.00 Build 0)  -->
<svg version="1.1" id="Capa_1" xmlns="http://www.w3.org/2000/svg" xmlns:xlink="http://www.w3.org/1999/xlink" x="0px" y="0px"
	 viewBox="0 0 8192 690.8" style="enable-background:new 0 0 8192 690.8;" xml:space="preserve">
<style type="text/css">
	.st0{fill:#FFFFFF;}
	.st1{fill:url(#SVGID_1_);}
	
		.st2{fill:none;stroke:url(#SVGID_00000160152845047805452480000002498559935958299026_);stroke-width:7.4034;stroke-miterlimit:9.9652;}
</style>
<path class="st0" d="M14.9,546.3c0,0,776.4,254.3,2556.1,48.4c0,0,1839.5-266.4,2245.6-411.7c0,0,1445.3-399.6,3404.2,375.4v1937.4
	H2.9V546.3"/>
<g>
	
		<linearGradient id="SVGID_1_" gradientUnits="userSpaceOnUse" x1="-10.2892" y1="753.2036" x2="8208.9248" y2="753.2036" gradientTransform="matrix(1 0 0 1 0 -388)">
		<stop  offset="0" style="stop-color:#D89D3B"/>
		<stop  offset="0.1023" style="stop-color:#DBA141"/>
		<stop  offset="0.2373" style="stop-color:#E4AB51"/>
		<stop  offset="0.3899" style="stop-color:#F2BD6D"/>
		<stop  offset="0.5" style="stop-color:#FFCC85"/>
		<stop  offset="0.5765" style="stop-color:#FCC880"/>
		<stop  offset="0.6708" style="stop-color:#F4BC71"/>
		<stop  offset="0.7744" style="stop-color:#E6A958"/>
		<stop  offset="0.8848" style="stop-color:#D38E35"/>
		<stop  offset="0.9993" style="stop-color:#BA6B08"/>
		<stop  offset="1" style="stop-color:#BA6B08"/>
	</linearGradient>
	<path class="st1" d="M0,524.9c110.6,30,198.3,46.9,258.4,56.6c54.9,8.9,112.2,16.1,128.1,18c42.8,5.2,85.6,9.9,128.6,13.8
		c42.9,3.9,85.9,7.3,128.9,10.1s86.1,5.1,129.1,6.9c43.1,1.7,86.2,3.1,129.3,4.1c43.1,0.9,86.2,1.5,129.3,1.6
		c172.5,0.6,344.9-4.7,517.2-13.8c43.1-2.2,86.1-4.9,129.2-7.6c43-2.8,86.1-5.8,129.1-9s86-6.6,129-10.3c43-3.6,85.9-7.5,128.9-11.5
		c171.8-16.1,343.3-35.2,514.6-56.7c85.6-10.7,171.2-22.1,256.7-33.9c42.7-5.9,85.5-12,128.2-18.2s85.4-12.5,128.1-19
		c170.7-25.8,341.1-53.6,511.2-83.2c85-14.8,170-30,254.9-45.8c84.9-15.7,169.7-31.8,254.4-48.5c84.7-16.6,169.3-33.7,253.7-51.5
		l63.3-13.4l31.6-6.8l30.9-6.8l63.2-15.4l15.8-3.8l7.9-1.9l8-1.8l31.9-7.1l31.9-7.1l16-3.5c5.3-1.1,10.7-2.2,16-3.3l64.1-13
		c10.7-2.3,21.4-4.1,32.1-6.1l32.1-5.9l32.1-5.9c10.7-1.8,21.5-3.6,32.2-5.3l32.2-5.3l16.1-2.7l8.1-1.3c2.7-0.4,5.4-0.8,8.1-1.2
		l64.6-9.5l16.2-2.4l16.2-2.1l32.4-4.2l32.4-4.2c5.4-0.7,10.8-1.3,16.2-1.9l16.2-1.8l32.5-3.6l16.2-1.8c5.4-0.6,10.8-1.3,16.2-1.7
		l65-6.2l16.3-1.5l16.3-1.3l32.5-2.5l32.5-2.5c5.4-0.5,10.9-0.8,16.3-1.1l16.3-1c86.8-5.9,173.8-9.1,260.8-10.8l32.6-0.5l16.3-0.3
		h16.3l65.2-0.1c43.5,0.5,87,0.8,130.4,2.2l32.6,0.9c10.9,0.3,21.7,0.8,32.6,1.3l32.6,1.3l16.3,0.7c5.4,0.2,10.9,0.6,16.3,0.8
		l65.1,3.5l65,4.3c86.7,6.1,173.2,14.1,259.6,23.7c86.3,9.6,172.4,21.1,258.2,34.2c171.6,26.2,342.2,59,511.2,98.2
		s336.4,84.7,501.7,136.8c82.7,26,164.7,53.8,246.2,83.4c40.7,14.9,81.2,30.1,121.5,46c40.3,16,80.3,32.3,120,50l-2.9,6.8
		c-20-7.9-40.3-15.5-60.6-22.8c-20.3-7.4-40.6-14.7-61-21.7c-40.8-14.2-81.7-27.9-122.8-41.1c-41.1-13.2-82.3-26-123.7-38.4
		c-10.3-3.1-20.7-6.2-31-9.2l-31.1-9.1c-10.4-3-20.7-5.9-31.1-8.9s-20.7-5.9-31.1-8.8c-166.2-46.5-334.1-86.8-503-121.5
		c-168.9-34.6-339-63.4-509.8-85.9c-170.8-22.7-342.3-38.7-514.1-48.3l-64.4-3.3l-64.5-2.5c-5.4-0.2-10.7-0.5-16.1-0.6L6012,120
		l-32.2-0.8c-10.7-0.3-21.5-0.6-32.2-0.8l-32.2-0.4c-43-0.8-86-0.6-129-0.6l-64.5,0.9l-16.1,0.2l-16.1,0.4l-32.2,0.9
		c-85.9,2.5-171.7,6.6-257.4,13.2l-16.1,1.1c-5.4,0.4-10.7,0.7-16.1,1.2l-32.1,2.8l-32.1,2.8l-16,1.4l-16,1.6l-64.1,6.6
		c-5.3,0.5-10.7,1.2-16,1.8l-16,1.9l-32,3.8c-85.2,10.6-170.2,22.6-254.7,37.6c-10.6,1.8-21.2,3.6-31.7,5.4l-31.6,6l-31.6,6
		c-10.5,2-21.1,3.9-31.6,6.1l-63,13.1c-5.2,1.1-10.5,2.1-15.7,3.3l-15.7,3.6l-31.4,7.1l-31.4,7.1l-7.8,1.8l-7.9,1.9l-15.7,3.9
		l-62.8,15.5l-16.5,3.7l-15.9,3.5l-31.8,7l-63.6,13.7c-84.8,17.9-169.7,35.2-254.7,52c-85,16.7-170.1,32.8-255.3,48.5
		c-85.2,15.6-170.5,30.7-255.9,45.2c-170.8,29.1-341.9,56.1-513.4,80.7c-42.9,6.1-85.8,12.2-128.7,18.1
		c-42.9,5.8-85.9,11.6-128.8,17.1c-85.9,11.2-171.9,21.6-258,31.4c-172.2,19.6-344.7,36.6-517.5,50.1s-345.9,23.8-519.2,29.5
		s-346.8,7-520.2,2c-43.3-1.3-86.7-3-130-5c-43.3-2.2-86.6-4.7-129.9-7.8c-43.3-3.1-86.5-6.7-129.7-10.8s-86.3-8.9-129.3-14.3
		c-43-5.3-86-11.4-128.8-18.2l-16.1-2.6c-5.4-0.8-10.7-1.8-16-2.7l-16-2.7c-5.3-0.9-10.7-1.8-16-2.8l-32-5.8l-31.9-6.2
		c-40.9-8.2-83.3-17.5-127-28.2C84,560.8,41,549.2,0,537.2C0,533.1,0,529,0,524.9z"/>
</g>
<linearGradient id="SVGID_00000172416106519588509990000003764227843526720914_" gradientUnits="userSpaceOnUse" x1="-49.0118" y1="-515.4834" x2="8180.0493" y2="-515.4834" gradientTransform="matrix(0.9965 0 0 -0.9965 43.8382 -201.087)">
	<stop  offset="0" style="stop-color:#D89D3B"/>
	<stop  offset="0.1023" style="stop-color:#DBA141"/>
	<stop  offset="0.2373" style="stop-color:#E4AB51"/>
	<stop  offset="0.3899" style="stop-color:#F2BD6D"/>
	<stop  offset="0.5" style="stop-color:#FFCC85"/>
	<stop  offset="0.5765" style="stop-color:#FCC880"/>
	<stop  offset="0.6708" style="stop-color:#F4BC71"/>
	<stop  offset="0.7744" style="stop-color:#E6A958"/>
	<stop  offset="0.8848" style="stop-color:#D38E35"/>
	<stop  offset="0.9993" style="stop-color:#BA6B08"/>
	<stop  offset="1" style="stop-color:#BA6B08"/>
</linearGradient>
<path style="fill:none;stroke:url(#SVGID_00000172416106519588509990000003764227843526720914_);stroke-width:7.4034;stroke-miterlimit:9.9652;" d="
	M-4,475.3c1425.5,402.4,4499.6-295.2,4499.6-295.2c1879.6-479,3698.2,303.3,3698.2,303.3"/>
</svg>
